<svg xmlns="http://www.w3.org/2000/svg" width="1675" height="745" viewBox="0 0 1675 745" font-family="Helvetica, Arial, sans-serif">
<rect width="100%" height="100%" fill="#ffffff"/>
<polygon points="317.6,665.4 317.6,467.1 193.7,467.1 193.7,665.4" fill="#4C78A8" fill-opacity="0.12" stroke="#222" stroke-width="3"/>
<text x="317.6" y="566.2" font-size="11" fill="#333" text-anchor="middle" transform="rotate(-90.0 317.6 566.2) translate(0 -5)">2.48</text>
<text x="255.7" y="467.1" font-size="11" fill="#333" text-anchor="middle" transform="rotate(360.0 255.7 467.1) translate(0 -5)">1.55</text>
<text x="193.7" y="566.2" font-size="11" fill="#333" text-anchor="middle" transform="rotate(90.0 193.7 566.2) translate(0 -5)">2.48</text>
<text x="255.7" y="665.4" font-size="11" fill="#333" text-anchor="middle" transform="rotate(0.0 255.7 665.4) translate(0 -5)">1.55</text>
<line x1="317.6" y1="657.4" x2="317.6" y2="597.4" stroke="#ffffff" stroke-width="5"/>
<line x1="317.6" y1="657.4" x2="317.6" y2="597.4" stroke="#B4531F" stroke-width="2" stroke-dasharray="4 3"/>
<text x="317.6" y="620.4" font-size="10" text-anchor="middle" fill="#B4531F">door 0.75</text>
<line x1="301.6" y1="467.1" x2="257.6" y2="467.1" stroke="#ffffff" stroke-width="5"/>
<line x1="301.6" y1="467.1" x2="257.6" y2="467.1" stroke="#B4531F" stroke-width="2" stroke-dasharray="4 3"/>
<text x="279.6" y="460.1" font-size="10" text-anchor="middle" fill="#B4531F">door 0.55</text>
<text x="255.7" y="566.2" font-size="14" font-weight="bold" text-anchor="middle" fill="#4C78A8">bathroom</text>
<text x="255.7" y="582.2" font-size="11" text-anchor="middle" fill="#333">3.84 ±1.90 m²</text>
<text x="255.7" y="596.2" font-size="11" text-anchor="middle" fill="#333">ceiling n/a</text>
<polygon points="788.6,316.7 1032.5,316.7 1032.5,80.0 786.7,80.0 786.7,212.2 826.4,212.2 826.4,263.8 788.6,263.8" fill="#F58518" fill-opacity="0.12" stroke="#222" stroke-width="3"/>
<text x="910.6" y="316.7" font-size="11" fill="#333" text-anchor="middle" transform="rotate(0.0 910.6 316.7) translate(0 -5)">3.05</text>
<text x="1032.5" y="198.3" font-size="11" fill="#333" text-anchor="middle" transform="rotate(-90.0 1032.5 198.3) translate(0 -5)">2.96</text>
<text x="909.6" y="80.0" font-size="11" fill="#333" text-anchor="middle" transform="rotate(360.0 909.6 80.0) translate(0 -5)">3.07</text>
<text x="786.7" y="146.1" font-size="11" fill="#333" text-anchor="middle" transform="rotate(90.0 786.7 146.1) translate(0 -5)">1.65</text>
<text x="806.6" y="212.2" font-size="11" fill="#333" text-anchor="middle" transform="rotate(0.0 806.6 212.2) translate(0 -5)">0.50</text>
<text x="826.4" y="238.0" font-size="11" fill="#333" text-anchor="middle" transform="rotate(90.0 826.4 238.0) translate(0 -5)">0.65</text>
<text x="807.5" y="263.8" font-size="11" fill="#333" text-anchor="middle" transform="rotate(360.0 807.5 263.8) translate(0 -5)">0.47</text>
<text x="788.6" y="290.3" font-size="11" fill="#333" text-anchor="middle" transform="rotate(90.0 788.6 290.3) translate(0 -5)">0.66</text>
<line x1="848.6" y1="316.7" x2="952.6" y2="316.7" stroke="#ffffff" stroke-width="5"/>
<line x1="848.6" y1="316.7" x2="952.6" y2="316.7" stroke="#4C78A8" stroke-width="2" stroke-dasharray="4 3"/>
<text x="900.6" y="309.7" font-size="10" text-anchor="middle" fill="#4C78A8">window 1.30</text>
<text x="858.6" y="218.2" font-size="14" font-weight="bold" text-anchor="middle" fill="#F58518">bedroom</text>
<text x="858.6" y="234.2" font-size="11" text-anchor="middle" fill="#333">8.75 ±4.33 m²</text>
<text x="858.6" y="248.2" font-size="11" text-anchor="middle" fill="#333">ceiling n/a</text>
<polygon points="80.0,350.2 283.8,350.2 283.8,203.0 282.4,203.0 282.4,154.6 80.0,154.6" fill="#54A24B" fill-opacity="0.12" stroke="#222" stroke-width="3"/>
<text x="181.9" y="350.2" font-size="11" fill="#333" text-anchor="middle" transform="rotate(0.0 181.9 350.2) translate(0 -5)">2.55</text>
<text x="283.8" y="276.6" font-size="11" fill="#333" text-anchor="middle" transform="rotate(-90.0 283.8 276.6) translate(0 -5)">1.84</text>
<text x="283.1" y="203.0" font-size="11" fill="#333" text-anchor="middle" transform="rotate(360.0 283.1 203.0) translate(0 -5)">0.02</text>
<text x="282.4" y="178.8" font-size="11" fill="#333" text-anchor="middle" transform="rotate(-90.0 282.4 178.8) translate(0 -5)">0.60</text>
<text x="181.2" y="154.6" font-size="11" fill="#333" text-anchor="middle" transform="rotate(360.0 181.2 154.6) translate(0 -5)">2.53</text>
<text x="80.0" y="252.4" font-size="11" fill="#333" text-anchor="middle" transform="rotate(90.0 80.0 252.4) translate(0 -5)">2.45</text>
<line x1="283.8" y1="310.2" x2="283.8" y2="234.2" stroke="#ffffff" stroke-width="5"/>
<line x1="283.8" y1="310.2" x2="283.8" y2="234.2" stroke="#B4531F" stroke-width="2" stroke-dasharray="4 3"/>
<text x="283.8" y="265.2" font-size="10" text-anchor="middle" fill="#B4531F">door 0.95</text>
<text x="215.4" y="235.9" font-size="14" font-weight="bold" text-anchor="middle" fill="#54A24B">kitchen</text>
<text x="215.4" y="251.9" font-size="11" text-anchor="middle" fill="#333">6.22 ±3.08 m²</text>
<text x="215.4" y="265.9" font-size="11" text-anchor="middle" fill="#333">ceiling 2.67 ±0.66 m</text>
<polygon points="295.8,455.1 666.7,455.1 666.7,232.2 295.8,232.2" fill="#B279A2" fill-opacity="0.12" stroke="#222" stroke-width="3"/>
<text x="481.3" y="455.1" font-size="11" fill="#333" text-anchor="middle" transform="rotate(0.0 481.3 455.1) translate(0 -5)">4.64</text>
<text x="666.7" y="343.7" font-size="11" fill="#333" text-anchor="middle" transform="rotate(-90.0 666.7 343.7) translate(0 -5)">2.79</text>
<text x="481.3" y="232.2" font-size="11" fill="#333" text-anchor="middle" transform="rotate(360.0 481.3 232.2) translate(0 -5)">4.64</text>
<text x="295.8" y="343.7" font-size="11" fill="#333" text-anchor="middle" transform="rotate(90.0 295.8 343.7) translate(0 -5)">2.79</text>
<line x1="595.8" y1="455.1" x2="659.8" y2="455.1" stroke="#ffffff" stroke-width="5"/>
<line x1="595.8" y1="455.1" x2="659.8" y2="455.1" stroke="#B4531F" stroke-width="2" stroke-dasharray="4 3"/>
<text x="627.8" y="448.1" font-size="10" text-anchor="middle" fill="#B4531F">door 0.80</text>
<line x1="338.7" y1="232.2" x2="294.7" y2="232.2" stroke="#ffffff" stroke-width="5"/>
<line x1="338.7" y1="232.2" x2="294.7" y2="232.2" stroke="#B4531F" stroke-width="2" stroke-dasharray="4 3"/>
<text x="316.7" y="225.2" font-size="10" text-anchor="middle" fill="#B4531F">door 0.55</text>
<text x="481.3" y="343.7" font-size="14" font-weight="bold" text-anchor="middle" fill="#B279A2">living</text>
<text x="481.3" y="359.7" font-size="11" text-anchor="middle" fill="#333">12.91 ±6.38 m²</text>
<text x="481.3" y="373.7" font-size="11" text-anchor="middle" fill="#333">ceiling n/a</text>
<polygon points="1112.5,420.1 1230.9,420.1 1230.9,230.0 1112.5,230.0" fill="#E45756" fill-opacity="0.12" stroke="#222" stroke-width="3"/>
<text x="1171.7" y="420.1" font-size="11" fill="#333" text-anchor="middle" transform="rotate(0.0 1171.7 420.1) translate(0 -5)">1.48</text>
<text x="1230.9" y="325.0" font-size="11" fill="#333" text-anchor="middle" transform="rotate(-90.0 1230.9 325.0) translate(0 -5)">2.38</text>
<text x="1171.7" y="230.0" font-size="11" fill="#333" text-anchor="middle" transform="rotate(360.0 1171.7 230.0) translate(0 -5)">1.48</text>
<text x="1112.5" y="325.0" font-size="11" fill="#333" text-anchor="middle" transform="rotate(90.0 1112.5 325.0) translate(0 -5)">2.38</text>
<line x1="1230.9" y1="304.1" x2="1230.9" y2="236.1" stroke="#ffffff" stroke-width="5"/>
<line x1="1230.9" y1="304.1" x2="1230.9" y2="236.1" stroke="#4C78A8" stroke-width="2" stroke-dasharray="4 3"/>
<text x="1230.9" y="263.1" font-size="10" text-anchor="middle" fill="#4C78A8">window 0.85</text>
<text x="1171.7" y="325.0" font-size="14" font-weight="bold" text-anchor="middle" fill="#E45756">store</text>
<text x="1171.7" y="341.0" font-size="11" text-anchor="middle" fill="#333">3.52 ±1.74 m²</text>
<text x="1171.7" y="355.0" font-size="11" text-anchor="middle" fill="#333">ceiling n/a</text>
<polygon points="1310.9,525.6 1595.4,525.6 1595.4,279.7 1324.1,279.7 1324.1,387.6 1310.9,387.6" fill="#72B7B2" fill-opacity="0.12" stroke="#222" stroke-width="3"/>
<text x="1453.1" y="525.6" font-size="11" fill="#333" text-anchor="middle" transform="rotate(0.0 1453.1 525.6) translate(0 -5)">3.56</text>
<text x="1595.4" y="402.6" font-size="11" fill="#333" text-anchor="middle" transform="rotate(-90.0 1595.4 402.6) translate(0 -5)">3.07</text>
<text x="1459.7" y="279.7" font-size="11" fill="#333" text-anchor="middle" transform="rotate(360.0 1459.7 279.7) translate(0 -5)">3.39</text>
<text x="1324.1" y="333.6" font-size="11" fill="#333" text-anchor="middle" transform="rotate(90.0 1324.1 333.6) translate(0 -5)">1.35</text>
<text x="1317.5" y="387.6" font-size="11" fill="#333" text-anchor="middle" transform="rotate(360.0 1317.5 387.6) translate(0 -5)">0.16</text>
<text x="1310.9" y="456.6" font-size="11" fill="#333" text-anchor="middle" transform="rotate(90.0 1310.9 456.6) translate(0 -5)">1.72</text>
<line x1="1310.9" y1="463.6" x2="1310.9" y2="519.6" stroke="#ffffff" stroke-width="5"/>
<line x1="1310.9" y1="463.6" x2="1310.9" y2="519.6" stroke="#B4531F" stroke-width="2" stroke-dasharray="4 3"/>
<text x="1310.9" y="484.6" font-size="10" text-anchor="middle" fill="#B4531F">door 0.70</text>
<text x="1410.1" y="397.6" font-size="14" font-weight="bold" text-anchor="middle" fill="#72B7B2">study</text>
<text x="1410.1" y="413.6" font-size="11" text-anchor="middle" fill="#333">10.71 ±1.79 m²</text>
<text x="1410.1" y="427.6" font-size="11" text-anchor="middle" fill="#333">ceiling 2.72 ±0.23 m</text>
<text x="12" y="20" font-size="13" fill="#222">photos · footprint 45.95 ±8.88 m² · 6 rooms</text>
<text x="12" y="37" font-size="11" fill="#D62728">0 damage regions · 0 concealed-damage flags · 0 scope items</text>
</svg>