<svg xmlns="http://www.w3.org/2000/svg" width="1311" height="823" viewBox="0 0 1311 823" font-family="Helvetica, Arial, sans-serif">
<rect width="100%" height="100%" fill="#ffffff"/>
<polygon points="287.0,728.1 287.0,529.8 163.1,529.8 163.1,728.1" fill="#4C78A8" fill-opacity="0.12" stroke="#222" stroke-width="3"/>
<text x="287.0" y="629.0" font-size="11" fill="#333" text-anchor="middle" transform="rotate(-90.0 287.0 629.0) translate(0 -5)">2.48</text>
<text x="225.1" y="529.8" font-size="11" fill="#333" text-anchor="middle" transform="rotate(360.0 225.1 529.8) translate(0 -5)">1.55</text>
<text x="163.1" y="629.0" font-size="11" fill="#333" text-anchor="middle" transform="rotate(90.0 163.1 629.0) translate(0 -5)">2.48</text>
<text x="225.1" y="728.1" font-size="11" fill="#333" text-anchor="middle" transform="rotate(0.0 225.1 728.1) translate(0 -5)">1.55</text>
<line x1="287.0" y1="720.1" x2="287.0" y2="660.1" stroke="#ffffff" stroke-width="5"/>
<line x1="287.0" y1="720.1" x2="287.0" y2="660.1" stroke="#B4531F" stroke-width="2" stroke-dasharray="4 3"/>
<text x="287.0" y="683.1" font-size="10" text-anchor="middle" fill="#B4531F">door 0.75</text>
<line x1="271.0" y1="529.8" x2="227.0" y2="529.8" stroke="#ffffff" stroke-width="5"/>
<line x1="271.0" y1="529.8" x2="227.0" y2="529.8" stroke="#B4531F" stroke-width="2" stroke-dasharray="4 3"/>
<text x="249.0" y="522.8" font-size="10" text-anchor="middle" fill="#B4531F">door 0.55</text>
<text x="225.1" y="629.0" font-size="14" font-weight="bold" text-anchor="middle" fill="#4C78A8">bathroom</text>
<text x="225.1" y="645.0" font-size="11" text-anchor="middle" fill="#333">3.84 ±1.90 m²</text>
<text x="225.1" y="659.0" font-size="11" text-anchor="middle" fill="#333">ceiling n/a</text>
<polygon points="788.6,530.9 1032.5,530.9 1032.5,294.2 786.7,294.2 786.7,426.4 826.4,426.4 826.4,478.1 788.6,478.1" fill="#F58518" fill-opacity="0.12" stroke="#222" stroke-width="3"/>
<text x="910.6" y="530.9" font-size="11" fill="#333" text-anchor="middle" transform="rotate(0.0 910.6 530.9) translate(0 -5)">3.05</text>
<text x="1032.5" y="412.6" font-size="11" fill="#333" text-anchor="middle" transform="rotate(-90.0 1032.5 412.6) translate(0 -5)">2.96</text>
<text x="909.6" y="294.2" font-size="11" fill="#333" text-anchor="middle" transform="rotate(360.0 909.6 294.2) translate(0 -5)">3.07</text>
<text x="786.7" y="360.3" font-size="11" fill="#333" text-anchor="middle" transform="rotate(90.0 786.7 360.3) translate(0 -5)">1.65</text>
<text x="806.6" y="426.4" font-size="11" fill="#333" text-anchor="middle" transform="rotate(0.0 806.6 426.4) translate(0 -5)">0.50</text>
<text x="826.4" y="452.2" font-size="11" fill="#333" text-anchor="middle" transform="rotate(90.0 826.4 452.2) translate(0 -5)">0.65</text>
<text x="807.5" y="478.1" font-size="11" fill="#333" text-anchor="middle" transform="rotate(360.0 807.5 478.1) translate(0 -5)">0.47</text>
<text x="788.6" y="504.5" font-size="11" fill="#333" text-anchor="middle" transform="rotate(90.0 788.6 504.5) translate(0 -5)">0.66</text>
<line x1="848.6" y1="530.9" x2="952.6" y2="530.9" stroke="#ffffff" stroke-width="5"/>
<line x1="848.6" y1="530.9" x2="952.6" y2="530.9" stroke="#4C78A8" stroke-width="2" stroke-dasharray="4 3"/>
<text x="900.6" y="523.9" font-size="10" text-anchor="middle" fill="#4C78A8">window 1.30</text>
<text x="858.6" y="432.4" font-size="14" font-weight="bold" text-anchor="middle" fill="#F58518">bedroom</text>
<text x="858.6" y="448.4" font-size="11" text-anchor="middle" fill="#333">8.75 ±4.33 m²</text>
<text x="858.6" y="462.4" font-size="11" text-anchor="middle" fill="#333">ceiling n/a</text>
<polygon points="125.3,494.3 137.8,494.3 137.8,517.8 365.8,517.8 365.8,471.7 361.6,471.7 361.6,394.1 125.3,394.1" fill="#54A24B" fill-opacity="0.12" stroke="#222" stroke-width="3"/>
<text x="131.5" y="494.3" font-size="11" fill="#333" text-anchor="middle" transform="rotate(0.0 131.5 494.3) translate(0 -5)">0.16</text>
<text x="137.8" y="506.0" font-size="11" fill="#333" text-anchor="middle" transform="rotate(90.0 137.8 506.0) translate(0 -5)">0.29</text>
<text x="251.8" y="517.8" font-size="11" fill="#333" text-anchor="middle" transform="rotate(0.0 251.8 517.8) translate(0 -5)">2.85</text>
<text x="365.8" y="494.8" font-size="11" fill="#333" text-anchor="middle" transform="rotate(-90.0 365.8 494.8) translate(0 -5)">0.58</text>
<text x="363.7" y="471.7" font-size="11" fill="#333" text-anchor="middle" transform="rotate(360.0 363.7 471.7) translate(0 -5)">0.05</text>
<text x="361.6" y="432.9" font-size="11" fill="#333" text-anchor="middle" transform="rotate(-90.0 361.6 432.9) translate(0 -5)">0.97</text>
<text x="243.5" y="394.1" font-size="11" fill="#333" text-anchor="middle" transform="rotate(360.0 243.5 394.1) translate(0 -5)">2.95</text>
<text x="125.3" y="444.2" font-size="11" fill="#333" text-anchor="middle" transform="rotate(90.0 125.3 444.2) translate(0 -5)">1.25</text>
<line x1="125.3" y1="442.1" x2="125.3" y2="490.1" stroke="#ffffff" stroke-width="5"/>
<line x1="125.3" y1="442.1" x2="125.3" y2="490.1" stroke="#4C78A8" stroke-width="2" stroke-dasharray="4 3"/>
<text x="125.3" y="459.1" font-size="10" text-anchor="middle" fill="#4C78A8">window 0.60</text>
<text x="247.6" y="469.5" font-size="14" font-weight="bold" text-anchor="middle" fill="#54A24B">hall</text>
<text x="247.6" y="485.5" font-size="11" text-anchor="middle" fill="#333">4.55 ±2.27 m²</text>
<text x="247.6" y="499.5" font-size="11" text-anchor="middle" fill="#333">ceiling 2.70 ±0.67 m</text>
<polygon points="80.0,275.6 283.8,275.6 283.8,128.3 282.4,128.3 282.4,80.0 80.0,80.0" fill="#B279A2" fill-opacity="0.12" stroke="#222" stroke-width="3"/>
<text x="181.9" y="275.6" font-size="11" fill="#333" text-anchor="middle" transform="rotate(0.0 181.9 275.6) translate(0 -5)">2.55</text>
<text x="283.8" y="202.0" font-size="11" fill="#333" text-anchor="middle" transform="rotate(-90.0 283.8 202.0) translate(0 -5)">1.84</text>
<text x="283.1" y="128.3" font-size="11" fill="#333" text-anchor="middle" transform="rotate(360.0 283.1 128.3) translate(0 -5)">0.02</text>
<text x="282.4" y="104.2" font-size="11" fill="#333" text-anchor="middle" transform="rotate(-90.0 282.4 104.2) translate(0 -5)">0.60</text>
<text x="181.2" y="80.0" font-size="11" fill="#333" text-anchor="middle" transform="rotate(360.0 181.2 80.0) translate(0 -5)">2.53</text>
<text x="80.0" y="177.8" font-size="11" fill="#333" text-anchor="middle" transform="rotate(90.0 80.0 177.8) translate(0 -5)">2.45</text>
<line x1="283.8" y1="235.6" x2="283.8" y2="159.6" stroke="#ffffff" stroke-width="5"/>
<line x1="283.8" y1="235.6" x2="283.8" y2="159.6" stroke="#B4531F" stroke-width="2" stroke-dasharray="4 3"/>
<text x="283.8" y="190.6" font-size="10" text-anchor="middle" fill="#B4531F">door 0.95</text>
<text x="215.4" y="161.3" font-size="14" font-weight="bold" text-anchor="middle" fill="#B279A2">kitchen</text>
<text x="215.4" y="177.3" font-size="11" text-anchor="middle" fill="#333">6.22 ±3.08 m²</text>
<text x="215.4" y="191.3" font-size="11" text-anchor="middle" fill="#333">ceiling 2.67 ±0.66 m</text>
<polygon points="295.8,517.8 666.7,517.8 666.7,295.0 295.8,295.0" fill="#E45756" fill-opacity="0.12" stroke="#222" stroke-width="3"/>
<text x="481.3" y="517.8" font-size="11" fill="#333" text-anchor="middle" transform="rotate(0.0 481.3 517.8) translate(0 -5)">4.64</text>
<text x="666.7" y="406.4" font-size="11" fill="#333" text-anchor="middle" transform="rotate(-90.0 666.7 406.4) translate(0 -5)">2.79</text>
<text x="481.3" y="295.0" font-size="11" fill="#333" text-anchor="middle" transform="rotate(360.0 481.3 295.0) translate(0 -5)">4.64</text>
<text x="295.8" y="406.4" font-size="11" fill="#333" text-anchor="middle" transform="rotate(90.0 295.8 406.4) translate(0 -5)">2.79</text>
<line x1="595.8" y1="517.8" x2="659.8" y2="517.8" stroke="#ffffff" stroke-width="5"/>
<line x1="595.8" y1="517.8" x2="659.8" y2="517.8" stroke="#B4531F" stroke-width="2" stroke-dasharray="4 3"/>
<text x="627.8" y="510.8" font-size="10" text-anchor="middle" fill="#B4531F">door 0.80</text>
<line x1="338.7" y1="295.0" x2="294.7" y2="295.0" stroke="#ffffff" stroke-width="5"/>
<line x1="338.7" y1="295.0" x2="294.7" y2="295.0" stroke="#B4531F" stroke-width="2" stroke-dasharray="4 3"/>
<text x="316.7" y="288.0" font-size="10" text-anchor="middle" fill="#B4531F">door 0.55</text>
<text x="481.3" y="406.4" font-size="14" font-weight="bold" text-anchor="middle" fill="#E45756">living</text>
<text x="481.3" y="422.4" font-size="11" text-anchor="middle" fill="#333">12.91 ±6.38 m²</text>
<text x="481.3" y="436.4" font-size="11" text-anchor="middle" fill="#333">ceiling n/a</text>
<polygon points="1112.5,634.4 1230.9,634.4 1230.9,444.2 1112.5,444.2" fill="#72B7B2" fill-opacity="0.12" stroke="#222" stroke-width="3"/>
<text x="1171.7" y="634.4" font-size="11" fill="#333" text-anchor="middle" transform="rotate(0.0 1171.7 634.4) translate(0 -5)">1.48</text>
<text x="1230.9" y="539.3" font-size="11" fill="#333" text-anchor="middle" transform="rotate(-90.0 1230.9 539.3) translate(0 -5)">2.38</text>
<text x="1171.7" y="444.2" font-size="11" fill="#333" text-anchor="middle" transform="rotate(360.0 1171.7 444.2) translate(0 -5)">1.48</text>
<text x="1112.5" y="539.3" font-size="11" fill="#333" text-anchor="middle" transform="rotate(90.0 1112.5 539.3) translate(0 -5)">2.38</text>
<line x1="1230.9" y1="518.4" x2="1230.9" y2="450.4" stroke="#ffffff" stroke-width="5"/>
<line x1="1230.9" y1="518.4" x2="1230.9" y2="450.4" stroke="#4C78A8" stroke-width="2" stroke-dasharray="4 3"/>
<text x="1230.9" y="477.4" font-size="10" text-anchor="middle" fill="#4C78A8">window 0.85</text>
<text x="1171.7" y="539.3" font-size="14" font-weight="bold" text-anchor="middle" fill="#72B7B2">store</text>
<text x="1171.7" y="555.3" font-size="11" text-anchor="middle" fill="#333">3.52 ±1.74 m²</text>
<text x="1171.7" y="569.3" font-size="11" text-anchor="middle" fill="#333">ceiling n/a</text>
<polygon points="364.7,742.7 649.2,742.7 649.2,496.8 377.8,496.8 377.8,604.7 364.7,604.7" fill="#EECA3B" fill-opacity="0.12" stroke="#222" stroke-width="3"/>
<text x="506.9" y="742.7" font-size="11" fill="#333" text-anchor="middle" transform="rotate(0.0 506.9 742.7) translate(0 -5)">3.56</text>
<text x="649.2" y="619.7" font-size="11" fill="#333" text-anchor="middle" transform="rotate(-90.0 649.2 619.7) translate(0 -5)">3.07</text>
<text x="513.5" y="496.8" font-size="11" fill="#333" text-anchor="middle" transform="rotate(360.0 513.5 496.8) translate(0 -5)">3.39</text>
<text x="377.8" y="550.7" font-size="11" fill="#333" text-anchor="middle" transform="rotate(90.0 377.8 550.7) translate(0 -5)">1.35</text>
<text x="371.2" y="604.7" font-size="11" fill="#333" text-anchor="middle" transform="rotate(360.0 371.2 604.7) translate(0 -5)">0.16</text>
<text x="364.7" y="673.7" font-size="11" fill="#333" text-anchor="middle" transform="rotate(90.0 364.7 673.7) translate(0 -5)">1.72</text>
<line x1="364.7" y1="680.7" x2="364.7" y2="736.7" stroke="#ffffff" stroke-width="5"/>
<line x1="364.7" y1="680.7" x2="364.7" y2="736.7" stroke="#B4531F" stroke-width="2" stroke-dasharray="4 3"/>
<text x="364.7" y="701.7" font-size="10" text-anchor="middle" fill="#B4531F">door 0.70</text>
<text x="463.9" y="614.7" font-size="14" font-weight="bold" text-anchor="middle" fill="#EECA3B">study</text>
<text x="463.9" y="630.7" font-size="11" text-anchor="middle" fill="#333">10.71 ±1.79 m²</text>
<text x="463.9" y="644.7" font-size="11" text-anchor="middle" fill="#333">ceiling 2.72 ±0.23 m</text>
<text x="12" y="20" font-size="13" fill="#222">photos · footprint 50.50 ±9.16 m² · 7 rooms</text>
<text x="12" y="37" font-size="11" fill="#D62728">0 damage regions · 0 concealed-damage flags · 0 scope items</text>
</svg>