<svg xmlns="http://www.w3.org/2000/svg" width="1747" height="712" viewBox="0 0 1747 712" font-family="Helvetica, Arial, sans-serif">
<rect width="100%" height="100%" fill="#ffffff"/>
<polygon points="299.7,619.9 299.7,421.6 175.8,421.6 175.8,619.9" fill="#4C78A8" fill-opacity="0.12" stroke="#222" stroke-width="3"/>
<text x="299.7" y="520.7" font-size="11" fill="#333" text-anchor="middle" transform="rotate(-90.0 299.7 520.7) translate(0 -5)">2.48</text>
<text x="237.7" y="421.6" font-size="11" fill="#333" text-anchor="middle" transform="rotate(360.0 237.7 421.6) translate(0 -5)">1.55</text>
<text x="175.8" y="520.7" font-size="11" fill="#333" text-anchor="middle" transform="rotate(90.0 175.8 520.7) translate(0 -5)">2.48</text>
<text x="237.7" y="619.9" font-size="11" fill="#333" text-anchor="middle" transform="rotate(0.0 237.7 619.9) translate(0 -5)">1.55</text>
<line x1="299.7" y1="611.9" x2="299.7" y2="551.9" stroke="#ffffff" stroke-width="5"/>
<line x1="299.7" y1="611.9" x2="299.7" y2="551.9" stroke="#B4531F" stroke-width="2" stroke-dasharray="4 3"/>
<text x="299.7" y="574.9" font-size="10" text-anchor="middle" fill="#B4531F">door 0.75</text>
<line x1="283.7" y1="421.6" x2="239.7" y2="421.6" stroke="#ffffff" stroke-width="5"/>
<line x1="283.7" y1="421.6" x2="239.7" y2="421.6" stroke="#B4531F" stroke-width="2" stroke-dasharray="4 3"/>
<text x="261.7" y="414.6" font-size="10" text-anchor="middle" fill="#B4531F">door 0.55</text>
<text x="237.7" y="520.7" font-size="14" font-weight="bold" text-anchor="middle" fill="#4C78A8">bathroom</text>
<text x="237.7" y="536.7" font-size="11" text-anchor="middle" fill="#333">3.84 ±1.90 m²</text>
<text x="237.7" y="550.7" font-size="11" text-anchor="middle" fill="#333">ceiling n/a</text>
<polygon points="828.6,422.7 1072.5,422.7 1072.5,186.0 826.7,186.0 826.7,318.2 866.4,318.2 866.4,369.8 828.6,369.8" fill="#999999" fill-opacity="0.08" stroke="#888" stroke-width="2" stroke-dasharray="8 5"/>
<text x="950.6" y="422.7" font-size="11" fill="#333" text-anchor="middle" transform="rotate(0.0 950.6 422.7) translate(0 -5)">3.05</text>
<text x="1072.5" y="304.3" font-size="11" fill="#333" text-anchor="middle" transform="rotate(-90.0 1072.5 304.3) translate(0 -5)">2.96</text>
<text x="949.6" y="186.0" font-size="11" fill="#333" text-anchor="middle" transform="rotate(360.0 949.6 186.0) translate(0 -5)">3.07</text>
<text x="826.7" y="252.1" font-size="11" fill="#333" text-anchor="middle" transform="rotate(90.0 826.7 252.1) translate(0 -5)">1.65</text>
<text x="846.6" y="318.2" font-size="11" fill="#333" text-anchor="middle" transform="rotate(0.0 846.6 318.2) translate(0 -5)">0.50</text>
<text x="866.4" y="344.0" font-size="11" fill="#333" text-anchor="middle" transform="rotate(90.0 866.4 344.0) translate(0 -5)">0.65</text>
<text x="847.5" y="369.8" font-size="11" fill="#333" text-anchor="middle" transform="rotate(360.0 847.5 369.8) translate(0 -5)">0.47</text>
<text x="828.6" y="396.2" font-size="11" fill="#333" text-anchor="middle" transform="rotate(90.0 828.6 396.2) translate(0 -5)">0.66</text>
<line x1="888.6" y1="422.7" x2="992.6" y2="422.7" stroke="#ffffff" stroke-width="5"/>
<line x1="888.6" y1="422.7" x2="992.6" y2="422.7" stroke="#4C78A8" stroke-width="2" stroke-dasharray="4 3"/>
<text x="940.6" y="415.7" font-size="10" text-anchor="middle" fill="#4C78A8">window 1.30</text>
<text x="898.6" y="324.2" font-size="14" font-weight="bold" text-anchor="middle" fill="#888888">bedroom (not connected)</text>
<text x="898.6" y="340.2" font-size="11" text-anchor="middle" fill="#333">8.75 ±4.33 m²</text>
<text x="898.6" y="354.2" font-size="11" text-anchor="middle" fill="#333">ceiling n/a</text>
<polygon points="80.0,275.6 283.8,275.6 283.8,128.3 282.4,128.3 282.4,80.0 80.0,80.0" fill="#54A24B" fill-opacity="0.12" stroke="#222" stroke-width="3"/>
<text x="181.9" y="275.6" font-size="11" fill="#333" text-anchor="middle" transform="rotate(0.0 181.9 275.6) translate(0 -5)">2.55</text>
<text x="283.8" y="202.0" font-size="11" fill="#333" text-anchor="middle" transform="rotate(-90.0 283.8 202.0) translate(0 -5)">1.84</text>
<text x="283.1" y="128.3" font-size="11" fill="#333" text-anchor="middle" transform="rotate(360.0 283.1 128.3) translate(0 -5)">0.02</text>
<text x="282.4" y="104.2" font-size="11" fill="#333" text-anchor="middle" transform="rotate(-90.0 282.4 104.2) translate(0 -5)">0.60</text>
<text x="181.2" y="80.0" font-size="11" fill="#333" text-anchor="middle" transform="rotate(360.0 181.2 80.0) translate(0 -5)">2.53</text>
<text x="80.0" y="177.8" font-size="11" fill="#333" text-anchor="middle" transform="rotate(90.0 80.0 177.8) translate(0 -5)">2.45</text>
<line x1="283.8" y1="235.6" x2="283.8" y2="159.6" stroke="#ffffff" stroke-width="5"/>
<line x1="283.8" y1="235.6" x2="283.8" y2="159.6" stroke="#B4531F" stroke-width="2" stroke-dasharray="4 3"/>
<text x="283.8" y="190.6" font-size="10" text-anchor="middle" fill="#B4531F">door 0.95</text>
<text x="215.4" y="161.3" font-size="14" font-weight="bold" text-anchor="middle" fill="#54A24B">kitchen</text>
<text x="215.4" y="177.3" font-size="11" text-anchor="middle" fill="#333">6.22 ±3.08 m²</text>
<text x="215.4" y="191.3" font-size="11" text-anchor="middle" fill="#333">ceiling 2.67 ±0.66 m</text>
<polygon points="295.8,409.6 666.7,409.6 666.7,186.7 295.8,186.7" fill="#B279A2" fill-opacity="0.12" stroke="#222" stroke-width="3"/>
<text x="481.3" y="409.6" font-size="11" fill="#333" text-anchor="middle" transform="rotate(0.0 481.3 409.6) translate(0 -5)">4.64</text>
<text x="666.7" y="298.1" font-size="11" fill="#333" text-anchor="middle" transform="rotate(-90.0 666.7 298.1) translate(0 -5)">2.79</text>
<text x="481.3" y="186.7" font-size="11" fill="#333" text-anchor="middle" transform="rotate(360.0 481.3 186.7) translate(0 -5)">4.64</text>
<text x="295.8" y="298.1" font-size="11" fill="#333" text-anchor="middle" transform="rotate(90.0 295.8 298.1) translate(0 -5)">2.79</text>
<line x1="595.8" y1="409.6" x2="659.8" y2="409.6" stroke="#ffffff" stroke-width="5"/>
<line x1="595.8" y1="409.6" x2="659.8" y2="409.6" stroke="#B4531F" stroke-width="2" stroke-dasharray="4 3"/>
<text x="627.8" y="402.6" font-size="10" text-anchor="middle" fill="#B4531F">door 0.80</text>
<line x1="338.7" y1="186.7" x2="294.7" y2="186.7" stroke="#ffffff" stroke-width="5"/>
<line x1="338.7" y1="186.7" x2="294.7" y2="186.7" stroke="#B4531F" stroke-width="2" stroke-dasharray="4 3"/>
<text x="316.7" y="179.7" font-size="10" text-anchor="middle" fill="#B4531F">door 0.55</text>
<text x="481.3" y="298.1" font-size="14" font-weight="bold" text-anchor="middle" fill="#B279A2">living</text>
<text x="481.3" y="314.1" font-size="11" text-anchor="middle" fill="#333">12.91 ±6.38 m²</text>
<text x="481.3" y="328.1" font-size="11" text-anchor="middle" fill="#333">ceiling n/a</text>
<polygon points="1168.5,526.1 1286.9,526.1 1286.9,335.9 1168.5,335.9" fill="#999999" fill-opacity="0.08" stroke="#888" stroke-width="2" stroke-dasharray="8 5"/>
<text x="1227.7" y="526.1" font-size="11" fill="#333" text-anchor="middle" transform="rotate(0.0 1227.7 526.1) translate(0 -5)">1.48</text>
<text x="1286.9" y="431.0" font-size="11" fill="#333" text-anchor="middle" transform="rotate(-90.0 1286.9 431.0) translate(0 -5)">2.38</text>
<text x="1227.7" y="335.9" font-size="11" fill="#333" text-anchor="middle" transform="rotate(360.0 1227.7 335.9) translate(0 -5)">1.48</text>
<text x="1168.5" y="431.0" font-size="11" fill="#333" text-anchor="middle" transform="rotate(90.0 1168.5 431.0) translate(0 -5)">2.38</text>
<line x1="1286.9" y1="410.1" x2="1286.9" y2="342.1" stroke="#ffffff" stroke-width="5"/>
<line x1="1286.9" y1="410.1" x2="1286.9" y2="342.1" stroke="#4C78A8" stroke-width="2" stroke-dasharray="4 3"/>
<text x="1286.9" y="369.1" font-size="10" text-anchor="middle" fill="#4C78A8">window 0.85</text>
<text x="1227.7" y="431.0" font-size="14" font-weight="bold" text-anchor="middle" fill="#888888">store (not connected)</text>
<text x="1227.7" y="447.0" font-size="11" text-anchor="middle" fill="#333">3.52 ±1.74 m²</text>
<text x="1227.7" y="461.0" font-size="11" text-anchor="middle" fill="#333">ceiling n/a</text>
<polygon points="1382.9,631.6 1667.4,631.6 1667.4,385.7 1396.1,385.7 1396.1,493.6 1382.9,493.6" fill="#999999" fill-opacity="0.08" stroke="#888" stroke-width="2" stroke-dasharray="8 5"/>
<text x="1525.1" y="631.6" font-size="11" fill="#333" text-anchor="middle" transform="rotate(0.0 1525.1 631.6) translate(0 -5)">3.56</text>
<text x="1667.4" y="508.6" font-size="11" fill="#333" text-anchor="middle" transform="rotate(-90.0 1667.4 508.6) translate(0 -5)">3.07</text>
<text x="1531.7" y="385.7" font-size="11" fill="#333" text-anchor="middle" transform="rotate(360.0 1531.7 385.7) translate(0 -5)">3.39</text>
<text x="1396.1" y="439.6" font-size="11" fill="#333" text-anchor="middle" transform="rotate(90.0 1396.1 439.6) translate(0 -5)">1.35</text>
<text x="1389.5" y="493.6" font-size="11" fill="#333" text-anchor="middle" transform="rotate(360.0 1389.5 493.6) translate(0 -5)">0.16</text>
<text x="1382.9" y="562.6" font-size="11" fill="#333" text-anchor="middle" transform="rotate(90.0 1382.9 562.6) translate(0 -5)">1.72</text>
<line x1="1382.9" y1="569.6" x2="1382.9" y2="625.6" stroke="#ffffff" stroke-width="5"/>
<line x1="1382.9" y1="569.6" x2="1382.9" y2="625.6" stroke="#B4531F" stroke-width="2" stroke-dasharray="4 3"/>
<text x="1382.9" y="590.6" font-size="10" text-anchor="middle" fill="#B4531F">door 0.70</text>
<text x="1482.1" y="503.6" font-size="14" font-weight="bold" text-anchor="middle" fill="#888888">study (not connected)</text>
<text x="1482.1" y="519.6" font-size="11" text-anchor="middle" fill="#333">10.71 ±1.79 m²</text>
<text x="1482.1" y="533.6" font-size="11" text-anchor="middle" fill="#333">ceiling 2.72 ±0.23 m</text>
<text x="12" y="20" font-size="13" fill="#222">photos · footprint 45.95 ±8.88 m² · 6 rooms</text>
<text x="12" y="54" font-size="11" fill="#666">3 room(s) dashed grey: no photo links them to the others, so they are measured but not placed (add a photo through each doorway)</text>
<text x="12" y="37" font-size="11" fill="#D62728">0 damage regions · 0 concealed-damage flags · 0 scope items</text>
</svg>